# xmcd CD database file
#
# Track frame offsets:
#	150
#	22877
#	49002
#	73794
#	81342
#	120183
#	139678
#	171278
#	195949
#
# Disc length: 2806 seconds
#
# Revision: 2
# Processed by: cddbd v1.5.2PL0 Copyright (c) Steve Scherf et al.
# Submitted via: CDex 2.14
#
DISCID=6d0af409
DTITLE=Nighthawks - Rio Bravo
DYEAR=2014
DGENRE=Jazz
TTITLE0=Still Happy
TTITLE1=El Camino Pacifico
TTITLE2=Camel Eyes
TTITLE3=Valpariso
TTITLE4=Detroit Bel Air
TTITLE5=20th Century Dogs
TTITLE6=Fortune
TTITLE7=Chevrolet Nomad
TTITLE8=Rio Grande
EXTD=YEAR: 2014
EXTT0=
EXTT1=
EXTT2=
EXTT3=
EXTT4=
EXTT5=
EXTT6=
EXTT7=
EXTT8=
PLAYORDER=
